<?xml version="1.0" encoding="iso-8859-1"?>
<!-- Generator: Adobe Illustrator 19.0.0, SVG Export Plug-In . SVG Version: 6.00 Build 0)  -->
<svg version="1.1" id="wrench_tool" xmlns="http://www.w3.org/2000/svg" xmlns:xlink="http://www.w3.org/1999/xlink" x="0px" y="0px"
	 viewBox="0 0 512 512" style="enable-background:new 0 0 512 512;" xml:space="preserve">
<g>
	<circle style="fill:#6EBEC5;" cx="256" cy="256" r="256"/>
	<path style="fill:#5EABB2;" d="M511.34,238.541c-0.599-0.195-136.515-138.9-136.515-138.9
		c-24.428-9.277-53.084-4.132-72.755,15.544c-20.101,20.101-25.088,49.592-14.966,74.358l-20.844,20.844l-67.323-69.315
		l-48.614-13.025l-35.584,35.589l13.025,48.614l69.315,67.323l-29.471,29.471c-19.727-6.195-42.138-1.516-57.774,14.121
		c-16.476,16.476-20.787,40.474-13.015,60.928c0,0,127.247,124.611,127.565,125.594l-0.271,0.266
		C234.568,511.252,245.192,512,256,512c141.384,0,256-114.616,256-256C512,250.127,511.729,244.316,511.34,238.541z"/>
	<path style="fill:#FFFFFF;" d="M205.056,346.496l119.501-119.501c24.765,10.122,54.257,5.135,74.358-14.966
		c19.676-19.676,24.822-48.328,15.544-72.755l-47.749,47.749l-31.258-8.376l-8.376-31.258l47.749-47.749
		c-24.428-9.277-53.084-4.132-72.755,15.544c-20.101,20.101-25.088,49.592-14.966,74.358L167.603,309.043
		c-19.727-6.195-42.138-1.516-57.774,14.121c-16.476,16.476-20.787,40.474-13.015,60.928l39.987-39.987l26.173,7.014l7.014,26.173
		l-39.987,39.987c20.46,7.767,44.452,3.461,60.928-13.015C206.572,388.628,211.251,366.223,205.056,346.496z"/>
	<path style="fill:#CEEAF2;" d="M205.056,346.491l119.501-119.496c24.765,10.122,54.257,5.135,74.358-14.966
		c19.676-19.676,24.822-48.328,15.544-72.755l-47.749,47.749l-31.258-8.376L162.975,351.124l7.014,26.173l-39.987,39.987
		c20.46,7.767,44.452,3.461,60.928-13.015C206.572,388.628,211.251,366.223,205.056,346.491z"/>
	<path style="fill:#3194B0;" d="M198.938,141.071l-48.614-13.025l-35.584,35.589l13.025,48.614l48.614,13.025l35.589-35.589
		L198.938,141.071z M148.014,191.99c-8.468-8.468-8.468-22.2,0-30.669s22.2-8.468,30.669,0c8.468,8.468,8.468,22.2,0,30.669
		C170.214,200.458,156.483,200.458,148.014,191.99z"/>
	<path style="fill:#2B8199;" d="M198.938,141.071l-20.255,20.255c8.468,8.468,8.468,22.2,0,30.669c-8.468,8.468-22.2,8.468-30.669,0
		l-20.255,20.255l48.614,13.025l35.589-35.589L198.938,141.071z"/>
	<path style="fill:#3194B0;" d="M335.186,298.168l-43.587,25.165v50.324l43.587,25.165l43.587-25.165v-50.324L335.186,298.168z
		 M335.186,370.181c-11.976,0-21.683-9.708-21.683-21.683c0-11.976,9.708-21.683,21.683-21.683c11.976,0,21.683,9.708,21.683,21.683
		C356.869,360.474,347.162,370.181,335.186,370.181z"/>
	<path style="fill:#2B8199;" d="M335.186,298.168v28.641c11.976,0,21.683,9.708,21.683,21.683c0,11.976-9.708,21.683-21.683,21.683
		v28.641l43.587-25.165v-50.324L335.186,298.168z"/>
</g>
<g>
</g>
<g>
</g>
<g>
</g>
<g>
</g>
<g>
</g>
<g>
</g>
<g>
</g>
<g>
</g>
<g>
</g>
<g>
</g>
<g>
</g>
<g>
</g>
<g>
</g>
<g>
</g>
<g>
</g>
</svg>
