<?xml version="1.0" encoding="utf-8"?>
<!-- Generated by IcoMoon.io -->
<!DOCTYPE svg PUBLIC "-//W3C//DTD SVG 1.1//EN" "http://www.w3.org/Graphics/SVG/1.1/DTD/svg11.dtd">
<svg xmlns="http://www.w3.org/2000/svg" xmlns:xlink="http://www.w3.org/1999/xlink" id="admin_db" version="1.1" width="512px" height="512px" viewBox="0 0 16 16">
<path fill="#e0e0e0" d="M14 2.5c0 0.828-2.686 1.5-6 1.5s-6-0.672-6-1.5c0-0.828 2.686-1.5 6-1.5s6 0.672 6 1.5z"/>
<path fill="#e0e0e0" d="M8 5c-3.3 0-6-0.7-6-1.5v3c0 0.8 2.7 1.5 6 1.5s6-0.7 6-1.5v-3c0 0.8-2.7 1.5-6 1.5z"/>
<path fill="#e0e0e0" d="M8 9c-3.3 0-6-0.7-6-1.5v3c0 0.8 2.7 1.5 6 1.5s6-0.7 6-1.5v-3c0 0.8-2.7 1.5-6 1.5z"/>
<path fill="#e0e0e0" d="M8 13c-3.3 0-6-0.7-6-1.5v3c0 0.8 2.7 1.5 6 1.5s6-0.7 6-1.5v-3c0 0.8-2.7 1.5-6 1.5z"/>
</svg>
