<?xml version="1.0" encoding="iso-8859-1"?>
<!-- Generator: Adobe Illustrator 19.0.0, SVG Export Plug-In . SVG Version: 6.00 Build 0)  -->
<svg version="1.1" id="coins" xmlns="http://www.w3.org/2000/svg" xmlns:xlink="http://www.w3.org/1999/xlink" x="0px" y="0px"
	 viewBox="0 0 512.001 512.001" style="enable-background:new 0 0 512.001 512.001;" xml:space="preserve">
<rect x="40.458" y="300.879" style="fill:#127481;" width="73.935" height="195.928"/>
<path style="fill:#FFC798;" d="M117.453,453.812l25.287,20.338c20.224,16.266,45.399,25.133,71.351,25.133h71.22
	c22.9,0,45.267-6.906,64.182-19.816l111.944-76.407c6.963-4.753,11.13-12.64,11.13-21.072l0,0c0-18.861-19.758-31.201-36.706-22.925
	l-100.914,49.276v-24.143c0-14.446-11.71-26.156-26.156-26.156h-81.055c-17.757,0-35.414-2.67-52.376-7.921l-58.913-18.235
	L117.453,453.812z"/>
<g>
	<circle style="fill:#F4A026;" cx="205.17" cy="158.344" r="46.209"/>
	<circle style="fill:#F4A026;" cx="304.982" cy="58.532" r="46.209"/>
	<circle style="fill:#F4A026;" cx="306.214" cy="259.389" r="46.209"/>
</g>
<g>
	<path style="fill:#231F20;" d="M467.099,349.9c-11.14-6.957-25.342-7.672-37.147-1.908l-83.69,40.619v-4.414
		c0-21.217-16.252-37.319-37.469-37.319h-81.055c-16.538,0-33.448-3.06-49.246-7.948l-52.803-16.765v-21.291
		c0-6.806-4.49-11.912-11.296-11.912H40.458c-6.806,0-13.349,5.106-13.349,11.912v195.928c0,6.806,6.544,12.733,13.349,12.733
		h73.935c6.806,0,11.296-5.928,11.296-12.733v-19.727l8.816,6.875c22.333,17.961,50.928,28.051,79.587,28.051h71.22
		c25.484,0,50.08-7.792,71.129-22.157l111.944-76.504c10.335-7.055,16.506-18.786,16.506-31.298
		C484.891,368.904,478.24,356.858,467.099,349.9z M101.045,484.891h-49.29V313.608h49.29V484.891z M454.491,392.883l-111.944,76.604
		c-16.937,11.561-36.728,17.868-57.234,17.868h-71.22c-23.06,0-46.171-8.158-64.141-22.611l-24.262-19.296v-97.485l45.516,14.509
		c18.161,5.622,37.521,9.051,56.533,9.051h81.055c7.626,0,12.824,5.046,12.824,12.674v14.898
		c-14.787,4.041-49.39,11.196-84.417,5.559c-6.713-1.078-12.791,3.488-13.871,10.208c-1.081,6.719,3.615,13.042,10.334,14.124
		c10.714,1.724,21.36,2.415,31.452,2.415c39.919,0,72.12-10.828,73.797-11.402c0.457-0.157,0.911-0.344,1.337-0.547
		c0.03-0.015,0.069-0.023,0.099-0.037l100.918-49.276c4.18-2.039,8.836-1.797,12.777,0.665c3.941,2.462,6.203,6.54,6.203,11.186
		C460.244,386.352,458.094,390.424,454.491,392.883z"/>
	<path style="fill:#231F20;" d="M205.17,216.876c32.274,0,58.532-26.258,58.532-58.532s-26.258-58.532-58.532-58.532
		s-58.532,26.258-58.532,58.532S172.896,216.876,205.17,216.876z M205.17,124.457c18.686,0,33.887,15.201,33.887,33.887
		s-15.201,33.887-33.887,33.887s-33.887-15.201-33.887-33.887S186.484,124.457,205.17,124.457z"/>
	<path style="fill:#231F20;" d="M304.982,117.064c32.274,0,58.532-26.258,58.532-58.532S337.256,0,304.982,0
		S246.45,26.258,246.45,58.532S272.708,117.064,304.982,117.064z M304.982,24.645c18.685,0,33.887,15.201,33.887,33.887
		s-15.202,33.887-33.887,33.887c-18.685,0-33.887-15.201-33.887-33.887S286.297,24.645,304.982,24.645z"/>
	<path style="fill:#231F20;" d="M306.214,200.857c-32.274,0-58.532,26.258-58.532,58.532s26.258,58.532,58.532,58.532
		s58.532-26.258,58.532-58.532S338.488,200.857,306.214,200.857z M306.214,293.276c-18.685,0-33.887-15.201-33.887-33.887
		s15.202-33.887,33.887-33.887s33.887,15.201,33.887,33.887S324.899,293.276,306.214,293.276z"/>
</g>
<g>
</g>
<g>
</g>
<g>
</g>
<g>
</g>
<g>
</g>
<g>
</g>
<g>
</g>
<g>
</g>
<g>
</g>
<g>
</g>
<g>
</g>
<g>
</g>
<g>
</g>
<g>
</g>
<g>
</g>
</svg>
