<?xml version="1.0" encoding="iso-8859-1"?>
<!-- Generator: Adobe Illustrator 19.0.0, SVG Export Plug-In . SVG Version: 6.00 Build 0)  -->
<svg version="1.1" id="open" xmlns="http://www.w3.org/2000/svg" xmlns:xlink="http://www.w3.org/1999/xlink" x="0px" y="0px"
	 viewBox="0 0 512 512" style="enable-background:new 0 0 512 512;" xml:space="preserve">
<circle style="fill:#F2CF61;" cx="256" cy="256" r="256"/>
<polygon style="fill:#CCCCCC;" points="412,216 100,216 256,108 "/>
<rect x="100" y="216" style="fill:#B3B3B3;" width="312" height="188"/>
<path style="fill:#FFFFFF;" d="M376,100c0-8.8-7.2-16-16-16H152c-8.8,0-16,7.2-16,16v204c0,8.8,7.2,16,16,16h208c8.8,0,16-7.2,16-16
	V100z"/>
<g>
	<polygon style="fill:#E6E6E6;" points="244,312 100,404 100,216 	"/>
	<polygon style="fill:#E6E6E6;" points="268,312 412,404 412,216 	"/>
</g>
<polygon style="fill:#F5F5F5;" points="412,404 100,404 256,296 "/>
<g>
	<rect x="168" y="112" style="fill:#CCCCCC;" width="80" height="8"/>
	<rect x="284" y="236" style="fill:#CCCCCC;" width="60" height="8"/>
	<rect x="284" y="252" style="fill:#CCCCCC;" width="28" height="8"/>
	<rect x="168" y="152" style="fill:#CCCCCC;" width="176" height="8"/>
	<rect x="168" y="168" style="fill:#CCCCCC;" width="176" height="8"/>
	<rect x="168" y="184" style="fill:#CCCCCC;" width="176" height="8"/>
	<rect x="168" y="200" style="fill:#CCCCCC;" width="176" height="8"/>
</g>
<g>
</g>
<g>
</g>
<g>
</g>
<g>
</g>
<g>
</g>
<g>
</g>
<g>
</g>
<g>
</g>
<g>
</g>
<g>
</g>
<g>
</g>
<g>
</g>
<g>
</g>
<g>
</g>
<g>
</g>
</svg>
