<?xml version="1.0" encoding="iso-8859-1"?>
<!-- Generator: Adobe Illustrator 18.1.1, SVG Export Plug-In . SVG Version: 6.00 Build 0)  -->
<svg xmlns="http://www.w3.org/2000/svg" xmlns:xlink="http://www.w3.org/1999/xlink" version="1.1" id="shopping_cart_d2d2d2" x="0px" y="0px" viewBox="0 0 502 502" style="enable-background:new 0 0 502 502;" xml:space="preserve" width="512px" height="512px">
<g>
	<g>
		<path d="M410,415c0,11.333,4,21,12,29s17.667,12,29,12s21-4,29-12s12-17.667,12-29s-4-21-12-29    s-17.667-12-29-12s-21,4-29,12S410,403.667,410,415z" fill="#D2D2D2"/>
		<path d="M113,415c0,11.333,4,21,12,29s17.667,12,29,12s21-4,29-12s12-17.667,12-29s-4-21-12-29    s-17.667-12-29-12s-21,4-29,12S113,403.667,113,415z" fill="#D2D2D2"/>
		<path d="M481,323H161l7-11c3.333-5.333,4.333-10.667,3-16l-7-26l297-15c5.333-0.667,10-3,14-7s6-9,6-15V98    c0-6-2-11-6-15s-8.667-6-14-6H114l-4-15c-2.667-10.667-9.333-16-20-16H20c-5.333,0-10,2-14,6s-6,8.833-6,14.5S2,77,6,81    s8.667,6,14,6h54l55,211l-22,35c-4,6.667-4,13.5,0,20.5s10,10.5,18,10.5h356c6,0,11-2,15-6s6-8.833,6-14.5s-2-10.5-6-14.5    S487,323,481,323z" fill="#D2D2D2"/>
	</g>
</g>
<g>
</g>
<g>
</g>
<g>
</g>
<g>
</g>
<g>
</g>
<g>
</g>
<g>
</g>
<g>
</g>
<g>
</g>
<g>
</g>
<g>
</g>
<g>
</g>
<g>
</g>
<g>
</g>
<g>
</g>
</svg>
